<?xml version="1.0" standalone="no"?>
<!DOCTYPE svg PUBLIC "-//W3C//DTD SVG 20010904//EN"
 "http://www.w3.org/TR/2001/REC-SVG-20010904/DTD/svg10.dtd">
<svg version="1.0" xmlns="http://www.w3.org/2000/svg"
 width="700.000000pt" height="700.000000pt" viewBox="0 0 700.000000 700.000000"
 preserveAspectRatio="xMidYMid meet">
<metadata>
Created by potrace 1.14, written by Peter Selinger 2001-2017
</metadata>
<g transform="translate(0.000000,700.000000) scale(0.100000,-0.100000)"
fill="#000000" stroke="none">
<path d="M3278 6996 c-1 -2 -39 -6 -83 -10 -477 -37 -983 -194 -1423 -443 -86
-48 -300 -186 -341 -219 -9 -7 -52 -41 -96 -75 -425 -331 -812 -824 -1020
-1299 -25 -58 -52 -118 -59 -135 -51 -115 -148 -423 -171 -546 -3 -13 -11 -58
-20 -99 -22 -115 -30 -160 -41 -255 -26 -230 -26 -666 1 -826 2 -13 6 -46 9
-74 9 -78 22 -152 51 -285 21 -96 91 -339 114 -395 5 -11 25 -65 46 -120 63
-166 249 -531 312 -610 4 -6 34 -49 65 -95 52 -78 214 -286 263 -336 198 -208
293 -297 445 -419 92 -74 370 -265 386 -265 4 0 15 -6 23 -14 26 -22 298 -158
411 -205 267 -111 589 -200 859 -237 25 -3 57 -8 71 -10 163 -25 682 -25 842
1 13 2 46 7 73 10 72 10 86 12 120 19 17 3 44 8 60 11 726 138 1438 544 1935
1104 36 41 70 79 76 85 65 68 263 353 352 508 46 79 172 331 172 342 0 3 11
29 24 58 57 127 151 421 182 573 17 81 54 301 59 350 4 33 9 71 11 85 9 46 11
524 4 605 -15 153 -21 210 -25 225 -2 8 -7 35 -10 60 -17 129 -80 384 -136
552 -348 1036 -1169 1858 -2204 2206 -168 57 -420 119 -555 137 -19 3 -46 7
-60 10 -13 2 -54 7 -90 11 -36 3 -76 8 -90 11 -27 5 -536 14 -542 9z m382
-270 c169 -7 203 -10 368 -37 207 -34 521 -120 657 -179 22 -10 69 -30 105
-45 739 -315 1378 -960 1685 -1700 20 -49 43 -103 50 -120 24 -57 84 -250 114
-370 39 -158 73 -369 86 -540 4 -56 5 -409 0 -470 -4 -59 -15 -160 -20 -194
-2 -13 -7 -45 -11 -70 -4 -25 -8 -55 -10 -66 -2 -11 -7 -36 -10 -55 -35 -199
-139 -520 -235 -725 -18 -38 -33 -72 -34 -75 -7 -32 -160 -294 -233 -400 -157
-227 -370 -466 -541 -610 -29 -25 -59 -49 -65 -55 -202 -181 -555 -392 -866
-518 -109 -44 -327 -115 -410 -132 -8 -2 -44 -10 -80 -19 -75 -17 -92 -21
-219 -41 -52 -9 -126 -18 -165 -21 -39 -3 -87 -7 -106 -9 -45 -5 -406 -5 -445
-1 -16 2 -65 7 -108 10 -43 4 -86 9 -95 11 -31 5 -102 17 -125 20 -131 17
-458 106 -602 165 -11 4 -40 16 -65 26 -162 65 -385 182 -533 278 -78 51 -278
196 -303 220 -6 6 -40 36 -75 66 -93 80 -261 251 -345 353 -206 246 -370 512
-506 822 -46 106 -133 373 -163 505 -18 76 -38 171 -41 200 -2 19 -9 60 -14
90 -5 30 -12 87 -16 125 -3 39 -7 86 -10 105 -5 46 -5 403 1 460 2 25 7 76 10
115 6 65 46 307 60 365 3 14 8 35 11 47 35 168 141 459 243 668 366 745 1003
1320 1786 1610 68 26 280 91 320 100 11 2 61 13 112 24 51 12 109 23 130 27
21 3 49 7 62 9 111 19 166 24 326 31 77 4 141 8 143 9 2 2 11 1 20 -1 9 -1 82
-5 162 -8z"/>
<path d="M4806 5973 c-1 -1 -83 -3 -182 -3 -189 -2 -279 -13 -393 -51 -205
-69 -368 -185 -509 -364 -66 -84 -126 -199 -168 -321 -26 -78 -29 -91 -39
-177 -4 -31 -11 -59 -15 -62 -4 -2 -7 1 -7 8 -1 68 -35 207 -75 307 -112 278
-356 511 -633 605 -148 50 -192 53 -654 55 l-436 1 -33 -103 c-19 -57 -73
-227 -122 -378 -106 -328 -118 -375 -126 -506 -17 -253 66 -506 236 -718 92
-117 124 -140 228 -164 94 -22 205 -62 254 -92 117 -71 230 -252 317 -508 23
-68 44 -131 46 -140 2 -9 8 -32 14 -51 35 -116 100 -473 117 -651 14 -133 11
-133 87 3 37 67 81 147 98 177 32 58 80 145 122 220 13 25 92 167 174 315 83
149 164 295 180 325 17 30 46 84 66 120 152 277 144 265 160 239 13 -20 330
-589 437 -784 27 -50 155 -279 203 -365 89 -160 182 -329 194 -352 18 -34 29
-42 29 -20 2 70 77 573 89 593 3 3 7 24 11 45 3 22 10 57 16 79 6 22 11 45 13
50 16 71 79 272 101 324 101 235 186 348 305 403 58 27 184 63 262 74 42 6 57
15 111 68 201 199 311 469 309 758 -1 58 -5 102 -18 193 -5 38 -27 111 -87
295 -33 102 -65 201 -70 220 -14 46 -14 44 -67 199 l-46 133 -248 2 c-137 0
-250 0 -251 -1z"/>
<path d="M1715 3962 c-227 -37 -393 -102 -534 -208 -130 -98 -256 -255 -320
-395 -21 -46 -233 -673 -276 -815 -3 -10 50 -51 210 -166 54 -39 208 -151 292
-213 236 -174 357 -232 553 -268 76 -13 265 -15 330 -3 194 37 333 95 475 198
l62 45 -3 54 c-3 77 -15 259 -19 294 -13 138 -27 249 -40 335 -3 14 -7 47 -10
74 -4 28 -8 53 -10 56 -2 4 -9 33 -14 66 -12 72 -13 75 -44 205 -79 324 -208
588 -320 654 -77 44 -275 97 -332 87z"/>
<path d="M5248 3955 c-2 -2 -25 -6 -53 -9 -61 -7 -186 -41 -229 -63 -104 -53
-215 -269 -295 -573 -31 -117 -54 -223 -65 -295 -4 -22 -8 -47 -11 -55 -4 -14
-11 -59 -20 -120 -2 -14 -6 -38 -9 -55 -6 -32 -22 -167 -31 -255 -4 -30 -8
-68 -10 -85 -2 -16 -7 -82 -10 -145 -3 -63 -8 -125 -11 -137 -3 -18 7 -31 54
-66 127 -93 296 -165 452 -193 79 -13 258 -20 305 -11 11 3 38 8 60 12 22 4
51 9 64 11 45 9 146 47 216 82 75 37 142 81 270 175 44 32 89 65 100 73 11 8
67 49 125 90 58 42 144 104 191 139 l86 62 -132 395 c-80 241 -146 422 -169
464 -157 286 -414 478 -723 539 -80 15 -150 24 -155 20z"/>
<path d="M3395 3568 c-55 -100 -116 -212 -136 -248 -20 -36 -45 -81 -56 -100
-11 -19 -59 -107 -108 -195 -103 -188 -95 -174 -287 -520 -83 -148 -161 -290
-175 -315 -14 -25 -41 -74 -61 -110 -19 -36 -41 -75 -48 -87 -39 -62 -59 -282
-41 -438 13 -110 66 -278 112 -355 11 -19 26 -46 33 -60 23 -45 128 -168 190
-224 33 -30 105 -86 159 -124 54 -39 195 -140 313 -225 l214 -155 41 29 c22
15 65 46 95 69 30 22 78 57 107 77 427 309 508 377 591 501 126 185 182 357
187 577 6 227 -1 249 -185 579 -86 154 -173 313 -194 351 -21 39 -46 84 -56
100 -16 28 -34 61 -114 205 -16 30 -41 76 -55 101 -14 25 -114 204 -221 397
-107 193 -197 352 -200 352 -3 0 -50 -82 -105 -182z"/>
</g>
</svg>
